<svg width="1792" height="167" viewBox="0 0 1792 167" fill="none" xmlns="http://www.w3.org/2000/svg">
<path d="M107.692 118.617C107.692 99.4419 96.5433 85.3951 74.9158 80.044C91.1922 74.024 101.226 60.4232 101.226 44.5928C101.226 18.283 82.9425 3.34446 51.9506 3.34446H0V163.432H55.295C86.7329 163.432 107.692 147.156 107.692 118.617ZM51.0587 16.9453C72.6862 16.9453 84.9492 27.6475 84.9492 45.4846C84.9492 63.3217 72.6862 74.024 51.0587 74.024H15.6075V16.9453H51.0587ZM54.4032 87.6248C77.8144 87.6248 91.6381 98.9959 91.6381 118.171C91.6381 138.238 77.8144 149.832 54.4032 149.832H15.6075V87.6248H54.4032Z" fill="#111111"/>
<path d="M155.857 163.432V100.111H192.423L235.455 163.432H255.522L210.26 98.1041C235.455 93.8678 251.285 75.8077 251.285 51.7276C251.285 20.9586 230.104 3.34446 196.213 3.34446H139.135V163.432H155.857ZM155.857 17.3912H194.876C219.402 17.3912 234.563 29.4312 234.563 51.7276C234.563 74.024 219.402 86.064 194.876 86.064H155.857V17.3912Z" fill="#111111"/>
<path d="M390.653 163.432H408.268L346.284 3.34446H328.001L265.794 163.432H282.293L299.238 119.063H373.931L390.653 163.432ZM336.696 21.1816L368.58 105.462H304.366L336.696 21.1816Z" fill="#111111"/>
<path d="M541.457 163.432H559.294V3.34446H543.464V138.015L450.934 3.34446H432.428V163.432H448.035V26.9786L541.457 163.432Z" fill="#111111"/>
<path d="M640.998 163.432C691.165 163.432 720.596 128.873 720.596 82.7196C720.596 35.8972 692.28 3.34446 640.998 3.34446H595.514V163.432H640.998ZM612.236 17.8371H640.552C681.578 17.8371 703.651 43.255 703.651 82.7196C703.651 122.407 681.132 148.94 640.552 148.94H612.236V17.8371Z" fill="#111111"/>
<path d="M764.217 163.432V3.34446H747.495V163.432H764.217Z" fill="#111111"/>
<path d="M909.434 163.432H927.272V3.34446H911.441V138.015L818.911 3.34446H800.405V163.432H816.013V26.9786L909.434 163.432Z" fill="#111111"/>
<path d="M1035.29 166.777C1082.55 166.777 1113.77 134.001 1114.21 83.3885H1033.95V96.9893H1096.82C1092.59 130.657 1070.51 152.284 1035.73 152.284C997.159 152.284 971.518 123.076 971.518 83.6114C971.518 43.255 996.935 14.9386 1033.72 14.9386C1066.05 14.9386 1086.34 33.8905 1093.26 58.1936H1112.21C1103.07 26.0868 1075.86 0 1034.17 0C987.794 0 954.349 36.1201 954.349 83.3885C954.349 131.549 989.355 166.777 1035.29 166.777Z" fill="#111111"/>
<path d="M1296.79 163.432H1314.63V3.34446H1298.8V138.015L1206.27 3.34446H1187.76V163.432H1203.37V26.9786L1296.79 163.432Z" fill="#111111"/>
<path d="M1446.94 148.94H1367.57V88.0707H1438.69V73.5781H1367.57V17.8371H1445.38V3.34446H1350.85V163.432H1446.94V148.94Z" fill="#111111"/>
<path d="M1600.64 163.432H1618.25L1660.39 3.34446H1643.89L1609.11 139.575L1572.1 3.34446H1554.26L1516.8 139.129L1482.24 3.34446H1465.97L1508.11 163.432H1525.5L1563.18 26.0868L1600.64 163.432Z" fill="#111111"/>
<path d="M1792 119.063C1792 94.9826 1776.62 83.8344 1749.64 78.2603L1729.35 74.024C1711.51 70.4566 1695.46 64.6595 1695.46 45.7076C1695.46 29.6542 1708.61 14.7156 1733.14 14.7156C1756.1 14.7156 1771.71 30.1001 1772.83 51.2817H1789.99C1788.21 20.7356 1764.13 1.11482 1732.91 1.11482C1701.03 1.11482 1678.51 20.9586 1678.51 46.5994C1678.51 74.4699 1700.81 84.2803 1721.99 88.5166L1742.28 92.53C1765.02 97.2122 1774.39 104.793 1774.39 121.292C1774.39 140.467 1756.55 152.061 1733.81 152.061C1706.16 152.061 1691.89 137.346 1690.33 114.603H1673.38C1674.94 144.926 1696.79 165.662 1734.03 165.662C1771.26 165.662 1792 144.481 1792 119.063Z" fill="#111111"/>
</svg>
