<svg width="1792" height="269" viewBox="0 0 1792 269" fill="none" xmlns="http://www.w3.org/2000/svg">
<path d="M173.201 190.772C173.201 159.933 155.271 137.342 120.488 128.735C146.665 119.053 162.802 97.1791 162.802 71.7189C162.802 29.4047 133.397 5.37891 83.5525 5.37891H0V262.85H88.9314C139.493 262.85 173.201 236.672 173.201 190.772ZM82.1181 27.2532C116.902 27.2532 136.624 44.4657 136.624 73.1533C136.624 101.841 116.902 119.053 82.1181 119.053H25.1016V27.2532H82.1181ZM87.497 140.928C125.149 140.928 147.382 159.216 147.382 190.055C147.382 222.329 125.149 240.975 87.497 240.975H25.1016V140.928H87.497Z" fill="#111111"/>
<path d="M250.666 262.85V161.009H309.475L378.684 262.85H410.958L338.163 157.782C378.684 150.968 404.144 121.922 404.144 83.1939C404.144 33.7079 370.078 5.37891 315.571 5.37891H223.771V262.85H250.666ZM250.666 27.9704H313.42C352.865 27.9704 377.25 47.3345 377.25 83.1939C377.25 119.053 352.865 138.417 313.42 138.417H250.666V27.9704Z" fill="#111111"/>
<path d="M628.291 262.85H656.62L556.931 5.37891H527.526L427.478 262.85H454.014L481.267 191.489H601.396L628.291 262.85ZM541.511 34.0665L592.79 169.615H489.515L541.511 34.0665Z" fill="#111111"/>
<path d="M870.83 262.85H899.517V5.37891H874.057V221.97L725.24 5.37891H695.477V262.85H720.579V43.3899L870.83 262.85Z" fill="#111111"/>
<path d="M1030.92 262.85C1111.61 262.85 1158.94 207.268 1158.94 133.039C1158.94 57.7337 1113.4 5.37891 1030.92 5.37891H957.769V262.85H1030.92ZM984.664 28.6875H1030.21C1096.19 28.6875 1131.69 69.5673 1131.69 133.039C1131.69 196.868 1095.47 239.541 1030.21 239.541H984.664V28.6875Z" fill="#111111"/>
<path d="M1229.1 262.85V5.37891H1202.2V262.85H1229.1Z" fill="#111111"/>
<path d="M1462.65 262.85H1491.34V5.37891H1465.88V221.97L1317.06 5.37891H1287.3V262.85H1312.4V43.3899L1462.65 262.85Z" fill="#111111"/>
<path d="M1665.06 268.229C1741.08 268.229 1791.28 215.515 1792 134.114H1662.91V155.989H1764.03C1757.22 210.136 1721.72 244.92 1665.77 244.92C1603.74 244.92 1562.5 197.944 1562.5 134.473C1562.5 69.5673 1603.38 24.0258 1662.55 24.0258C1714.54 24.0258 1747.18 54.5064 1758.29 93.5931H1788.77C1774.07 41.9555 1730.32 0 1663.26 0C1588.68 0 1534.89 58.0923 1534.89 134.114C1534.89 211.571 1591.19 268.229 1665.06 268.229Z" fill="#111111"/>
</svg>
