<svg width="1792" height="229" viewBox="0 0 1792 229" fill="none" xmlns="http://www.w3.org/2000/svg">
<path d="M107.079 228.42C159.246 228.42 202.261 193.032 210.803 140.865H186.702C179.991 179.914 147.653 207.981 107.079 207.981C58.5733 207.981 23.4903 168.322 23.4903 114.019C23.4903 60.3272 58.5733 20.6682 107.079 20.6682C147.348 20.6682 179.686 48.4294 186.702 87.4783H210.803C202.261 35.3115 159.246 0.228516 107.079 0.228516C46.0654 0.228516 0 49.6497 0 114.019C0 178.694 46.0654 228.42 107.079 228.42Z" fill="#111111"/>
<path d="M392.1 223.844H416.2L331.391 4.80455H306.375L221.261 223.844H243.836L267.021 163.135H369.219L392.1 223.844ZM318.273 29.2101L361.898 144.526H274.038L318.273 29.2101Z" fill="#111111"/>
<path d="M549.93 223.844H570.065L649.993 38.0571V223.844H671.043V4.80455H641.756L559.997 195.778L478.849 4.80455H449.257V223.844H470.612V38.0571L549.93 223.844Z" fill="#111111"/>
<path d="M792.36 143.306C837.51 143.306 868.322 117.985 868.322 73.7502C868.322 29.5152 837.51 4.80455 792.36 4.80455H720.364V223.844H743.244V143.306H792.36ZM792.055 24.329C824.697 24.329 845.442 42.023 845.442 73.7502C845.442 105.782 824.697 123.782 792.055 123.782H743.244V24.329H792.055Z" fill="#111111"/>
<path d="M1042.76 223.844H1066.86L982.046 4.80455H957.031L871.916 223.844H894.491L917.677 163.135H1019.87L1042.76 223.844ZM968.928 29.2101L1012.55 144.526H924.693L968.928 29.2101Z" fill="#111111"/>
<path d="M1122.79 223.844V4.80455H1099.91V223.844H1122.79Z" fill="#111111"/>
<path d="M1270.54 228.42C1335.21 228.42 1377.92 183.575 1378.53 114.324H1268.71V132.934H1354.74C1348.94 178.999 1318.74 208.591 1271.15 208.591C1218.37 208.591 1183.29 168.627 1183.29 114.629C1183.29 59.4119 1218.07 20.6682 1268.4 20.6682C1312.64 20.6682 1340.4 46.599 1349.86 79.8516H1375.79C1363.28 35.9216 1326.06 0.228516 1269.01 0.228516C1205.56 0.228516 1159.8 49.6497 1159.8 114.324C1159.8 180.219 1207.69 228.42 1270.54 228.42Z" fill="#111111"/>
<path d="M1564.59 223.844H1588.99V4.80455H1567.33V189.066L1440.73 4.80455H1415.41V223.844H1436.76V37.1419L1564.59 223.844Z" fill="#111111"/>
<path d="M1792 163.135C1792 130.188 1770.95 114.935 1734.04 107.308L1706.28 101.511C1681.87 96.6304 1659.91 88.6986 1659.91 62.7677C1659.91 40.8027 1677.9 20.3631 1711.46 20.3631C1742.88 20.3631 1764.24 41.4128 1765.76 70.3944H1789.25C1786.81 28.5999 1753.87 1.75386 1711.16 1.75386C1667.53 1.75386 1636.72 28.905 1636.72 63.988C1636.72 102.122 1667.23 115.545 1696.21 121.341L1723.97 126.832C1755.09 133.239 1767.9 143.611 1767.9 166.186C1767.9 192.422 1743.49 208.286 1712.38 208.286C1674.55 208.286 1655.02 188.151 1652.89 157.034H1629.7C1631.84 198.523 1661.74 226.895 1712.68 226.895C1763.63 226.895 1792 197.913 1792 163.135Z" fill="#111111"/>
</svg>
