<svg width="1792" height="201" viewBox="0 0 1792 201" fill="none" xmlns="http://www.w3.org/2000/svg">
<path d="M115.402 179.28H20.0815V106.183H105.495V88.7791H20.0815V21.8407H113.528V4.43671H0V196.684H115.402V179.28Z" fill="#111111"/>
<path d="M221.784 131.084V114.483H137.174V131.084H221.784Z" fill="#111111"/>
<path d="M335.069 200.7C380.855 200.7 418.608 169.641 426.105 123.855H404.952C399.062 158.127 370.68 182.761 335.069 182.761C292.496 182.761 261.704 147.953 261.704 100.293C261.704 53.1679 292.496 18.3599 335.069 18.3599C370.412 18.3599 398.794 42.7255 404.952 76.998H426.105C418.608 31.2121 380.855 0.42041 335.069 0.42041C281.518 0.42041 241.087 43.7965 241.087 100.293C241.087 157.056 281.518 200.7 335.069 200.7Z" fill="#111111"/>
<path d="M544.582 200.7C600.274 200.7 641.776 156.253 641.776 100.293C641.776 44.332 600.274 0.42041 544.582 0.42041C488.889 0.42041 447.655 44.332 447.655 100.293C447.655 156.253 488.889 200.7 544.582 200.7ZM544.582 182.761C499.331 182.761 468.272 146.346 468.272 100.293C468.272 54.2389 499.331 18.3599 544.582 18.3599C590.1 18.3599 620.891 54.2389 620.891 100.293C620.891 146.346 590.1 182.761 544.582 182.761Z" fill="#111111"/>
<path d="M762.188 196.684H779.86L850.011 33.6219V196.684H868.486V4.43671H842.782L771.024 172.051L699.801 4.43671H673.829V196.684H692.572V33.6219L762.188 196.684Z" fill="#111111"/>
<path d="M1000.13 196.684H1017.8L1087.96 33.6219V196.684H1106.43V4.43671H1080.73L1008.97 172.051L937.747 4.43671H911.774V196.684H930.517V33.6219L1000.13 196.684Z" fill="#111111"/>
<path d="M1265.12 179.28H1169.8V106.183H1255.21V88.7791H1169.8V21.8407H1263.25V4.43671H1149.72V196.684H1265.12V179.28Z" fill="#111111"/>
<path d="M1322.5 196.684V120.642H1366.42L1418.09 196.684H1442.19L1387.84 118.232C1418.09 113.145 1437.1 91.4567 1437.1 62.5393C1437.1 25.5892 1411.67 4.43671 1370.97 4.43671H1302.42V196.684H1322.5ZM1322.5 21.3052H1369.36C1398.81 21.3052 1417.02 35.7639 1417.02 62.5393C1417.02 89.3146 1398.81 103.773 1369.36 103.773H1322.5V21.3052Z" fill="#111111"/>
<path d="M1553.03 200.7C1598.82 200.7 1636.57 169.641 1644.07 123.855H1622.92C1617.03 158.127 1588.65 182.761 1553.03 182.761C1510.46 182.761 1479.67 147.953 1479.67 100.293C1479.67 53.1679 1510.46 18.3599 1553.03 18.3599C1588.38 18.3599 1616.76 42.7255 1622.92 76.998H1644.07C1636.57 31.2121 1598.82 0.42041 1553.03 0.42041C1499.48 0.42041 1459.05 43.7965 1459.05 100.293C1459.05 157.056 1499.48 200.7 1553.03 200.7Z" fill="#111111"/>
<path d="M1792 179.28H1696.68V106.183H1782.09V88.7791H1696.68V21.8407H1790.13V4.43671H1676.6V196.684H1792V179.28Z" fill="#111111"/>
</svg>
