<svg width="1328" height="180" viewBox="0 0 1328 180" fill="none" xmlns="http://www.w3.org/2000/svg">
<path d="M86.995 179.758C136.981 179.758 174.23 139.865 174.23 89.6386C174.23 39.4121 136.981 0 86.995 0C37.0089 0 0 39.4121 0 89.6386C0 139.865 37.0089 179.758 86.995 179.758ZM86.995 163.656C46.3813 163.656 18.5045 130.973 18.5045 89.6386C18.5045 48.3039 46.3813 16.1013 86.995 16.1013C127.849 16.1013 155.486 48.3039 155.486 89.6386C155.486 130.973 127.849 163.656 86.995 163.656Z" fill="#111111"/>
<path d="M328.685 3.60477H310.661V117.996C310.661 146.113 292.397 163.656 265.722 163.656C239.047 163.656 220.542 146.113 220.542 117.996V3.60477H202.518V117.035C202.518 155.726 227.511 179.758 265.722 179.758C303.692 179.758 328.685 155.726 328.685 117.035V3.60477Z" fill="#111111"/>
<path d="M385.068 176.153V107.903H424.48L470.861 176.153H492.49L443.706 105.74C470.861 101.174 487.924 81.7081 487.924 55.7537C487.924 22.5899 465.094 3.60477 428.566 3.60477H367.044V176.153H385.068ZM385.068 18.7448H427.124C453.559 18.7448 469.9 31.722 469.9 55.7537C469.9 79.7855 453.559 92.7627 427.124 92.7627H385.068V18.7448Z" fill="#111111"/>
<path d="M704.86 3.60477H686.836L630.602 155.486L574.848 3.60477H556.103L620.508 176.153H640.214L704.86 3.60477Z" fill="#111111"/>
<path d="M747.657 176.153V3.60477H729.633V176.153H747.657Z" fill="#111111"/>
<path d="M907.542 128.33C907.542 102.375 890.96 90.3595 861.881 84.3516L840.012 79.7855C820.787 75.9404 803.484 69.6922 803.484 49.2652C803.484 31.9623 817.663 15.861 844.098 15.861C868.85 15.861 885.672 32.4429 886.874 55.2731H905.379C903.456 22.3496 877.502 1.20159 843.857 1.20159C809.492 1.20159 785.22 22.5899 785.22 50.2264C785.22 80.2662 809.251 90.8401 832.082 95.4062L853.951 99.7319C878.463 104.779 888.556 112.949 888.556 130.733C888.556 151.4 869.331 163.897 844.819 163.897C815.019 163.897 799.639 148.036 797.956 123.523H779.692C781.375 156.207 804.926 178.556 845.059 178.556C885.192 178.556 907.542 155.726 907.542 128.33Z" fill="#111111"/>
<path d="M959.108 176.153V3.60477H941.085V176.153H959.108Z" fill="#111111"/>
<path d="M1075.26 179.758C1125.24 179.758 1162.49 139.865 1162.49 89.6386C1162.49 39.4121 1125.24 0 1075.26 0C1025.27 0 988.26 39.4121 988.26 89.6386C988.26 139.865 1025.27 179.758 1075.26 179.758ZM1075.26 163.656C1034.64 163.656 1006.76 130.973 1006.76 89.6386C1006.76 48.3039 1034.64 16.1013 1075.26 16.1013C1116.11 16.1013 1143.75 48.3039 1143.75 89.6386C1143.75 130.973 1116.11 163.656 1075.26 163.656Z" fill="#111111"/>
<path d="M1308.77 176.153H1328V3.60477H1310.94V148.757L1211.21 3.60477H1191.26V176.153H1208.08V29.0785L1308.77 176.153Z" fill="#111111"/>
</svg>
