<svg width="1792" height="186" viewBox="0 0 1792 186" fill="none" xmlns="http://www.w3.org/2000/svg">
<path d="M18.8733 183.197V111.73H60.143L108.71 183.197H131.358L80.2745 109.465C108.71 104.684 126.577 84.3008 126.577 57.1232C126.577 22.3963 102.671 2.51644 64.4209 2.51644H0V183.197H18.8733ZM18.8733 18.37H62.9111C90.5919 18.37 107.704 31.9588 107.704 57.1232C107.704 82.2877 90.5919 95.8765 62.9111 95.8765H18.8733V18.37Z" fill="#111111"/>
<path d="M268.685 166.84H179.1V98.1413H259.374V81.7844H179.1V18.8733H266.924V2.51644H160.227V183.197H268.685V166.84Z" fill="#111111"/>
<path d="M406.917 183.197V166.337H322.616V2.51644H303.742V183.197H406.917Z" fill="#111111"/>
<path d="M562.303 183.197H582.183L512.226 2.51644H491.591L421.382 183.197H440.004L459.129 133.12H543.43L562.303 183.197ZM501.405 22.648L537.39 117.77H464.917L501.405 22.648Z" fill="#111111"/>
<path d="M656.412 183.197V19.3766H717.058V2.51644H577.144V19.3766H637.79V183.197H656.412Z" fill="#111111"/>
<path d="M850.858 166.84H761.273V98.1413H841.548V81.7844H761.273V18.8733H849.097V2.51644H742.4V183.197H850.858V166.84Z" fill="#111111"/>
<path d="M937.251 183.197C993.871 183.197 1027.09 144.192 1027.09 92.1018C1027.09 39.2565 995.129 2.51644 937.251 2.51644H885.916V183.197H937.251ZM904.789 18.8733H936.748C983.05 18.8733 1007.96 47.5608 1007.96 92.1018C1007.96 136.894 982.547 166.84 936.748 166.84H904.789V18.8733Z" fill="#111111"/>
<path d="M1233.09 183.197H1253.22V2.51644H1235.36V154.51L1130.92 2.51644H1110.04V183.197H1127.65V29.1907L1233.09 183.197Z" fill="#111111"/>
<path d="M1402.56 166.84H1312.97V98.1413H1393.25V81.7844H1312.97V18.8733H1400.8V2.51644H1294.1V183.197H1402.56V166.84Z" fill="#111111"/>
<path d="M1576.02 183.197H1595.9L1643.46 2.51644H1624.84L1585.58 156.271L1543.81 2.51644H1523.68L1481.4 155.768L1442.4 2.51644H1424.03L1471.59 183.197H1491.22L1533.74 28.1842L1576.02 183.197Z" fill="#111111"/>
<path d="M1792 133.12C1792 105.942 1774.64 93.36 1744.19 87.0689L1721.29 82.2877C1701.16 78.2614 1683.04 71.7186 1683.04 50.3289C1683.04 32.2105 1697.89 15.3503 1725.57 15.3503C1751.49 15.3503 1769.1 32.7138 1770.36 56.62H1789.74C1787.72 22.1447 1760.54 0 1725.31 0C1689.33 0 1663.91 22.3963 1663.91 51.3354C1663.91 82.791 1689.08 93.8633 1712.98 98.6446L1735.88 103.174C1761.55 108.459 1772.12 117.015 1772.12 135.636C1772.12 157.278 1751.99 170.363 1726.32 170.363C1695.12 170.363 1679.01 153.755 1677.25 128.087H1658.13C1659.89 162.311 1684.55 185.713 1726.57 185.713C1768.6 185.713 1792 161.807 1792 133.12Z" fill="#111111"/>
</svg>
