<svg width="1792" height="197" viewBox="0 0 1792 197" fill="none" xmlns="http://www.w3.org/2000/svg">
<path d="M139.148 140.371C139.148 112.123 121.1 99.0453 89.4522 92.5064L65.6506 87.5368C44.7261 83.3519 25.894 76.5515 25.894 54.3192C25.894 35.4872 41.3258 17.9629 70.097 17.9629C97.0373 17.9629 115.346 36.0103 116.654 60.8581H136.794C134.701 25.0249 106.453 2.00797 69.8354 2.00797C32.4329 2.00797 6.01579 25.2865 6.01579 55.3654C6.01579 88.0599 32.1714 99.5684 57.0192 104.538L80.8208 109.246C107.5 114.739 118.485 123.632 118.485 142.987C118.485 165.48 97.5604 179.081 70.8817 179.081C38.4487 179.081 21.7091 161.819 19.8783 135.14H0C1.83089 170.712 27.4634 195.036 71.1432 195.036C114.823 195.036 139.148 170.189 139.148 140.371Z" fill="#111111"/>
<path d="M254.506 196.344C308.91 196.344 349.451 152.926 349.451 98.2606C349.451 43.5954 308.91 0.700195 254.506 0.700195C200.103 0.700195 159.823 43.5954 159.823 98.2606C159.823 152.926 200.103 196.344 254.506 196.344ZM254.506 178.82C210.303 178.82 179.963 143.248 179.963 98.2606C179.963 53.273 210.303 18.2245 254.506 18.2245C298.971 18.2245 329.05 53.273 329.05 98.2606C329.05 143.248 298.971 178.82 254.506 178.82Z" fill="#111111"/>
<path d="M461.845 196.344C506.571 196.344 543.45 166.004 550.774 121.278H530.111C524.356 154.757 496.632 178.82 461.845 178.82C420.257 178.82 390.178 144.818 390.178 98.2606C390.178 52.2267 420.257 18.2245 461.845 18.2245C496.37 18.2245 524.095 42.026 530.111 75.5052H550.774C543.45 30.7791 506.571 0.700195 461.845 0.700195C409.533 0.700195 370.038 43.0723 370.038 98.2606C370.038 153.71 409.533 196.344 461.845 196.344Z" fill="#111111"/>
<path d="M602.165 192.421V4.62353H582.549V192.421H602.165Z" fill="#111111"/>
<path d="M776.964 192.421H797.627L724.915 4.62353H703.467L630.493 192.421H649.848L669.726 140.371H757.348L776.964 192.421ZM713.668 25.548L751.07 124.416H675.742L713.668 25.548Z" fill="#111111"/>
<path d="M933.207 192.421V174.897H845.586V4.62353H825.969V192.421H933.207Z" fill="#111111"/>
<path d="M1103.34 192.421H1120.6L1189.13 33.1331V192.421H1207.18V4.62353H1182.07L1111.97 168.358L1042.4 4.62353H1017.03V192.421H1035.34V33.1331L1103.34 192.421Z" fill="#111111"/>
<path d="M1362.2 175.42H1269.08V104.015H1352.52V87.0137H1269.08V21.6247H1360.36V4.62353H1249.47V192.421H1362.2V175.42Z" fill="#111111"/>
<path d="M1451.99 192.421C1510.84 192.421 1545.37 151.88 1545.37 97.7375C1545.37 42.8107 1512.15 4.62353 1451.99 4.62353H1398.63V192.421H1451.99ZM1418.25 21.6247H1451.47C1499.59 21.6247 1525.49 51.4421 1525.49 97.7375C1525.49 144.294 1499.07 175.42 1451.47 175.42H1418.25V21.6247Z" fill="#111111"/>
<path d="M1596.54 192.421V4.62353H1576.92V192.421H1596.54Z" fill="#111111"/>
<path d="M1771.34 192.421H1792L1719.29 4.62353H1697.84L1624.87 192.421H1644.22L1664.1 140.371H1751.72L1771.34 192.421ZM1708.04 25.548L1745.44 124.416H1670.11L1708.04 25.548Z" fill="#111111"/>
</svg>
