<svg width="1792" height="204" viewBox="0 0 1792 204" fill="none" xmlns="http://www.w3.org/2000/svg">
<path d="M117.008 181.348H20.361V107.234H106.963V89.5882H20.361V21.7184H115.107V4.07219H0V198.994H117.008V181.348Z" fill="#111111"/>
<path d="M175.189 198.994V121.894H219.712L272.107 198.994H296.54L241.43 119.451C272.107 114.293 291.382 92.303 291.382 62.9832C291.382 25.5191 265.592 4.07219 224.327 4.07219H154.828V198.994H175.189ZM175.189 21.1754H222.698C252.561 21.1754 271.021 35.8353 271.021 62.9832C271.021 90.1312 252.561 104.791 222.698 104.791H175.189V21.1754Z" fill="#111111"/>
<path d="M348.045 198.994V4.07219H327.684V198.994H348.045Z" fill="#111111"/>
<path d="M412.469 198.994V107.506L504.772 198.994H531.105L433.372 101.262L528.39 4.07219H504.772L412.469 98.0041V4.07219H392.108V198.994H412.469Z" fill="#111111"/>
<path d="M579.757 198.994V107.506L672.06 198.994H698.394L600.661 101.262L695.679 4.07219H672.06L579.757 98.0041V4.07219H559.396V198.994H579.757Z" fill="#111111"/>
<path d="M856.876 144.97C856.876 115.65 838.144 102.076 805.295 95.2893L780.59 90.1312C758.872 85.7875 739.326 78.7291 739.326 55.6533C739.326 36.1068 755.343 17.9176 785.206 17.9176C813.168 17.9176 832.172 36.6497 833.529 62.4403H854.433C852.261 25.2476 822.941 1.3574 784.934 1.3574C746.113 1.3574 718.693 25.5191 718.693 56.7392C718.693 90.6741 745.841 102.619 771.632 107.777L796.336 112.664C824.027 118.365 835.429 127.595 835.429 147.685C835.429 171.032 813.711 185.149 786.02 185.149C752.357 185.149 734.982 167.231 733.082 139.54H712.449C714.349 176.462 740.954 201.709 786.292 201.709C831.629 201.709 856.876 175.919 856.876 144.97Z" fill="#111111"/>
<path d="M923.098 25.2476C923.098 12.2166 916.583 2.44332 904.095 2.44332C894.593 2.44332 887.806 8.41587 887.806 17.3747C887.806 25.5191 894.05 31.7631 902.466 31.7631C904.638 31.7631 906.809 31.4916 908.981 30.4057C907.352 42.0793 897.308 50.7667 883.191 50.7667V61.8973C907.624 62.7118 923.098 43.9797 923.098 25.2476Z" fill="#111111"/>
<path d="M1167.63 198.994H1189.07L1240.38 4.07219H1220.29L1177.94 169.946L1132.88 4.07219H1111.16L1065.55 169.403L1023.47 4.07219H1003.65L1054.96 198.994H1076.14L1122.02 31.7631L1167.63 198.994Z" fill="#111111"/>
<path d="M1349.1 203.067C1405.57 203.067 1447.65 158.001 1447.65 101.262C1447.65 44.5227 1405.57 0 1349.1 0C1292.63 0 1250.82 44.5227 1250.82 101.262C1250.82 158.001 1292.63 203.067 1349.1 203.067ZM1349.1 184.878C1303.22 184.878 1271.73 147.956 1271.73 101.262C1271.73 54.5674 1303.22 18.1891 1349.1 18.1891C1395.25 18.1891 1426.47 54.5674 1426.47 101.262C1426.47 147.956 1395.25 184.878 1349.1 184.878Z" fill="#111111"/>
<path d="M1500.51 198.994V121.894H1545.03L1597.43 198.994H1621.86L1566.75 119.451C1597.43 114.293 1616.7 92.303 1616.7 62.9832C1616.7 25.5191 1590.91 4.07219 1549.65 4.07219H1480.15V198.994H1500.51ZM1500.51 21.1754H1548.02C1577.88 21.1754 1596.34 35.8353 1596.34 62.9832C1596.34 90.1312 1577.88 104.791 1548.02 104.791H1500.51V21.1754Z" fill="#111111"/>
<path d="M1673.36 198.994V107.506L1765.67 198.994H1792L1694.27 101.262L1789.29 4.07219H1765.67L1673.36 98.0041V4.07219H1653V198.994H1673.36Z" fill="#111111"/>
</svg>
